<?xml version="1.0" encoding="UTF-8" standalone="no"?>
<!DOCTYPE svg PUBLIC "-//W3C//DTD SVG 1.1//EN"
 "http://www.w3.org/Graphics/SVG/1.1/DTD/svg11.dtd">
<!-- Generated by graphviz version 2.40.1 (20161225.0304)
 -->
<!-- Title: G Pages: 1 -->
<svg width="256pt" height="188pt"
 viewBox="0.00 0.00 256.33 188.00" xmlns="http://www.w3.org/2000/svg" xmlns:xlink="http://www.w3.org/1999/xlink">
<g id="graph0" class="graph" transform="scale(1 1) rotate(0) translate(4 184)">
<title>G</title>
<polygon fill="#ffffff" stroke="transparent" points="-4,4 -4,-184 252.3304,-184 252.3304,4 -4,4"/>
<!-- /nix/store/riiv6kxg168csj9qwg05pb1z55psk2p1&#45;pgpdump&#45;0.32 -->
<g id="node1" class="node">
<title>/nix/store/riiv6kxg168csj9qwg05pb1z55psk2p1&#45;pgpdump&#45;0.32</title>
<polygon fill="#ff0000" stroke="#000000" points="136.3304,-36 16.3304,-36 16.3304,0 136.3304,0 136.3304,-36"/>
<text text-anchor="middle" x="76.3304" y="-14.3" font-family="Times,serif" font-size="14.00" fill="#000000">pgpdump&#45;0.32</text>
</g>
<!-- /nix/store/5dnva19r2z20jahsx3jxm565qwjxsynl&#45;bzip2&#45;1.0.6.0.1 -->
<g id="node2" class="node">
<title>/nix/store/5dnva19r2z20jahsx3jxm565qwjxsynl&#45;bzip2&#45;1.0.6.0.1</title>
<polygon fill="#ff0000" stroke="#000000" points="137.8304,-108 14.8304,-108 14.8304,-72 137.8304,-72 137.8304,-108"/>
<text text-anchor="middle" x="76.3304" y="-86.3" font-family="Times,serif" font-size="14.00" fill="#000000">bzip2&#45;1.0.6.0.1</text>
</g>
<!-- /nix/store/5dnva19r2z20jahsx3jxm565qwjxsynl&#45;bzip2&#45;1.0.6.0.1&#45;&gt;/nix/store/riiv6kxg168csj9qwg05pb1z55psk2p1&#45;pgpdump&#45;0.32 -->
<g id="edge1" class="edge">
<title>/nix/store/5dnva19r2z20jahsx3jxm565qwjxsynl&#45;bzip2&#45;1.0.6.0.1&#45;&gt;/nix/store/riiv6kxg168csj9qwg05pb1z55psk2p1&#45;pgpdump&#45;0.32</title>
<path fill="none" stroke="#000000" d="M76.3304,-71.8314C76.3304,-64.131 76.3304,-54.9743 76.3304,-46.4166"/>
<polygon fill="#000000" stroke="#000000" points="79.8305,-46.4132 76.3304,-36.4133 72.8305,-46.4133 79.8305,-46.4132"/>
</g>
<!-- /nix/store/i8wz3m067dzbs5x2glhxvcg7lvds1942&#45;zlib&#45;1.2.11 -->
<g id="node3" class="node">
<title>/nix/store/i8wz3m067dzbs5x2glhxvcg7lvds1942&#45;zlib&#45;1.2.11</title>
<polygon fill="#ff0000" stroke="#000000" points="248.3304,-108 156.3304,-108 156.3304,-72 248.3304,-72 248.3304,-108"/>
<text text-anchor="middle" x="202.3304" y="-86.3" font-family="Times,serif" font-size="14.00" fill="#000000">zlib&#45;1.2.11</text>
</g>
<!-- /nix/store/i8wz3m067dzbs5x2glhxvcg7lvds1942&#45;zlib&#45;1.2.11&#45;&gt;/nix/store/riiv6kxg168csj9qwg05pb1z55psk2p1&#45;pgpdump&#45;0.32 -->
<g id="edge2" class="edge">
<title>/nix/store/i8wz3m067dzbs5x2glhxvcg7lvds1942&#45;zlib&#45;1.2.11&#45;&gt;/nix/store/riiv6kxg168csj9qwg05pb1z55psk2p1&#45;pgpdump&#45;0.32</title>
<path fill="none" stroke="#ff0000" d="M170.5353,-71.8314C154.2699,-62.5368 134.2919,-51.1208 116.9254,-41.1971"/>
<polygon fill="#ff0000" stroke="#ff0000" points="118.5343,-38.0854 108.1154,-36.1628 115.0613,-44.1631 118.5343,-38.0854"/>
</g>
<!-- /nix/store/zpg78y1mf0di6127q6r51kgx2q8cxsvv&#45;glibc&#45;2.25&#45;49 -->
<g id="node4" class="node">
<title>/nix/store/zpg78y1mf0di6127q6r51kgx2q8cxsvv&#45;glibc&#45;2.25&#45;49</title>
<polygon fill="#ff0000" stroke="#000000" points="131.3304,-180 21.3304,-180 21.3304,-144 131.3304,-144 131.3304,-180"/>
<text text-anchor="middle" x="76.3304" y="-158.3" font-family="Times,serif" font-size="14.00" fill="#000000">glibc&#45;2.25&#45;49</text>
</g>
<!-- /nix/store/zpg78y1mf0di6127q6r51kgx2q8cxsvv&#45;glibc&#45;2.25&#45;49&#45;&gt;/nix/store/riiv6kxg168csj9qwg05pb1z55psk2p1&#45;pgpdump&#45;0.32 -->
<g id="edge3" class="edge">
<title>/nix/store/zpg78y1mf0di6127q6r51kgx2q8cxsvv&#45;glibc&#45;2.25&#45;49&#45;&gt;/nix/store/riiv6kxg168csj9qwg05pb1z55psk2p1&#45;pgpdump&#45;0.32</title>
<path fill="none" stroke="#00ff00" d="M40.4013,-143.9923C26.8133,-135.158 12.8287,-123.1235 5.3304,-108 -1.7768,-93.6652 -1.7768,-86.3348 5.3304,-72 11.3056,-59.9485 21.3997,-49.8585 32.1297,-41.7863"/>
<polygon fill="#00ff00" stroke="#00ff00" points="34.2081,-44.6039 40.4013,-36.0077 30.1992,-38.8655 34.2081,-44.6039"/>
</g>
<!-- /nix/store/zpg78y1mf0di6127q6r51kgx2q8cxsvv&#45;glibc&#45;2.25&#45;49&#45;&gt;/nix/store/5dnva19r2z20jahsx3jxm565qwjxsynl&#45;bzip2&#45;1.0.6.0.1 -->
<g id="edge4" class="edge">
<title>/nix/store/zpg78y1mf0di6127q6r51kgx2q8cxsvv&#45;glibc&#45;2.25&#45;49&#45;&gt;/nix/store/5dnva19r2z20jahsx3jxm565qwjxsynl&#45;bzip2&#45;1.0.6.0.1</title>
<path fill="none" stroke="#0000ff" d="M76.3304,-143.8314C76.3304,-136.131 76.3304,-126.9743 76.3304,-118.4166"/>
<polygon fill="#0000ff" stroke="#0000ff" points="79.8305,-118.4132 76.3304,-108.4133 72.8305,-118.4133 79.8305,-118.4132"/>
</g>
<!-- /nix/store/zpg78y1mf0di6127q6r51kgx2q8cxsvv&#45;glibc&#45;2.25&#45;49&#45;&gt;/nix/store/i8wz3m067dzbs5x2glhxvcg7lvds1942&#45;zlib&#45;1.2.11 -->
<g id="edge5" class="edge">
<title>/nix/store/zpg78y1mf0di6127q6r51kgx2q8cxsvv&#45;glibc&#45;2.25&#45;49&#45;&gt;/nix/store/i8wz3m067dzbs5x2glhxvcg7lvds1942&#45;zlib&#45;1.2.11</title>
<path fill="none" stroke="#ff00ff" d="M108.1256,-143.8314C124.391,-134.5368 144.369,-123.1208 161.7355,-113.1971"/>
<polygon fill="#ff00ff" stroke="#ff00ff" points="163.5995,-116.1631 170.5455,-108.1628 160.1265,-110.0854 163.5995,-116.1631"/>
</g>
</g>
</svg>
